# File created by Blade
# Date/Time:  Tue Jan 27 19:05:11 2015
#---------------------------------------------------------
:version 1.10
:name HOM
:units
  mass 1.0
  length 1.000000
  angle deg
:documentation
     Acclaim Skeleton File
:root
   axis xyz
   order TX TY TZ RX RY RZ
   position 0.000000 0.000000 0.000000
   orientation 0 0 0
:bonedata
   begin
      id 1
      name Spine_dum
      direction 0.000000 1.000000 0.000000
      length 5.195262
      axis 0.0 0.0 0.0 xyz
   end
   begin
      id 2
      name LeftUpLeg_dum
      direction 1.000000 0.000000 0.000000
      length 3.351363
      axis 0.0 0.0 0.0 xyz
   end
   begin
      id 3
      name RightUpLeg_dum
      direction -1.000000 0.000000 0.000000
      length 3.351363
      axis 0.0 0.0 0.0 xyz
   end
   begin
      id 4
      name Spine
      direction 0.000000 1.000000 0.000000
      length 0.000000
      axis 0.0 0.0 0.0 xyz
      dof rx ry rz
   end
   begin
      id 5
      name Spine_dum1
      direction 0.000000 1.000000 0.000000
      length 15.653875
      axis 0.0 0.0 0.0 xyz
   end
   begin
      id 6
      name Spine_dum2
      direction 0.000000 1.000000 0.000000
      length 10.329768
      axis 0.0 0.0 0.0 xyz
   end
   begin
      id 7
      name Spine_dum3
      direction 0.000000 1.000000 0.000000
      length 10.329768
      axis 0.0 0.0 0.0 xyz
   end
   begin
      id 8
      name Head
      direction 0.000000 1.000000 0.000000
      length 4.527550
      axis 0.0 0.0 0.0 xyz
      dof rx ry rz
   end
   begin
      id 9
      name LeftShoulder
      direction 1.000000 0.000000 0.000000
      length 6.996006
      axis 0.0 0.0 -90.0 xyz
      dof rx ry rz
   end
   begin
      id 10
      name LeftArm
      direction 1.000000 0.000000 0.000000
      length 10.209302
      axis 0.0 0.0 -90.0 xyz
      dof rx ry rz
   end
   begin
      id 11
      name LeftForeArm
      direction 1.000000 0.000000 0.000000
      length 8.563163
      axis 0.0 0.0 -90.0 xyz
      dof ry rz rx
   end
   begin
      id 12
      name LeftHand
      direction 0.000000 0.000000 0.000000
      length 0.000000
      axis 0.0 0.0 -90.0 xyz
      dof rx ry rz
   end
   begin
      id 13
      name LeftHand_dum1
      direction 0.000000 0.000000 0.000000
      length 0.000000
      axis 0.0 0.0 -90.0 xyz
   end
   begin
      id 14
      name LeftHand_dum2
      direction 1.000000 0.000000 0.000000
      length 3.937000
      axis 0.0 0.0 -90.0 xyz
   end
   begin
      id 15
      name LeftHandThumb1
      direction 0.000000 0.000000 1.000000
      length 3.937000
      axis 0.0 0.0 -90.0 xyz
      dof rx rz ry
   end
   begin
      id 16
      name RightShoulder
      direction -1.000000 0.000000 0.000000
      length 6.996006
      axis 0.0 0.0 90.0 xyz
      dof rx ry rz
   end
   begin
      id 17
      name RightArm
      direction -1.000000 0.000000 0.000000
      length 10.209302
      axis 0.0 0.0 90.0 xyz
      dof rx ry rz
   end
   begin
      id 18
      name RightForeArm
      direction -1.000000 0.000000 0.000000
      length 8.563163
      axis 0.0 0.0 90.0 xyz
      dof ry rz rx
   end
   begin
      id 19
      name RightHand
      direction 0.000000 0.000000 0.000000
      length 0.000000
      axis 0.0 0.0 90.0 xyz
      dof rx ry rz
   end
   begin
      id 20
      name RightHand_dum1
      direction 0.000000 0.000000 0.000000
      length 0.000000
      axis 0.0 0.0 90.0 xyz
   end
   begin
      id 21
      name RightHand_dum2
      direction -1.000000 0.000000 0.000000
      length 3.937000
      axis 0.0 0.0 90.0 xyz
   end
   begin
      id 22
      name RightHandThumb1
      direction 0.000000 0.000000 1.000000
      length 3.937000
      axis 0.0 0.0 90.0 xyz
      dof rx rz ry
   end
   begin
      id 23
      name LeftUpLeg
      direction 0.000000 -1.000000 0.000000
      length 16.346831
      axis 0.0 0.0 0.0 xyz
      dof rx ry rz
   end
   begin
      id 24
      name LeftLeg
      direction 0.000000 -1.000000 0.000000
      length 13.959795
      axis 0.0 0.0 0.0 xyz
      dof rx ry rz
   end
   begin
      id 25
      name LeftFoot
      direction 0.000000 -0.258819 0.965926
      length 5.165550
      axis 15.0 0.0 0.0 xyz
      dof rx ry rz
   end
   begin
      id 26
      name LeftToeBase
      direction 0.000000 0.000000 1.000000
      length 2.952750
      axis 0.0 0.0 0.0 xyz
      dof rx ry rz
   end
   begin
      id 27
      name RightUpLeg
      direction 0.000000 -1.000000 0.000000
      length 16.346831
      axis 0.0 0.0 0.0 xyz
      dof rx ry rz
   end
   begin
      id 28
      name RightLeg
      direction 0.000000 -1.000000 0.000000
      length 13.959795
      axis 0.0 0.0 0.0 xyz
      dof rx ry rz
   end
   begin
      id 29
      name RightFoot
      direction 0.000000 -0.258819 0.965926
      length 5.165550
      axis 15.0 0.0 0.0 xyz
      dof rx ry rz
   end
   begin
      id 30
      name RightToeBase
      direction 0.000000 0.000000 1.000000
      length 2.952750
      axis 0.0 0.0 0.0 xyz
      dof rx ry rz
   end
:hierarchy
   begin
      root Spine_dum LeftUpLeg_dum RightUpLeg_dum
      Spine_dum Spine
      LeftUpLeg_dum LeftUpLeg
      RightUpLeg_dum RightUpLeg
      Spine Spine_dum1 Spine_dum2 Spine_dum3
      Spine_dum1 Head
      Spine_dum2 LeftShoulder
      Spine_dum3 RightShoulder
      LeftShoulder LeftArm
      LeftArm LeftForeArm
      LeftForeArm LeftHand
      LeftHand LeftHand_dum1 LeftHand_dum2
      LeftHand_dum1 LeftHandThumb1
      RightShoulder RightArm
      RightArm RightForeArm
      RightForeArm RightHand
      RightHand RightHand_dum1 RightHand_dum2
      RightHand_dum1 RightHandThumb1
      LeftUpLeg LeftLeg
      LeftLeg LeftFoot
      LeftFoot LeftToeBase
      RightUpLeg RightLeg
      RightLeg RightFoot
      RightFoot RightToeBase
   end

# File created by Blade
# Date/Time:  Tue Jan 27 19:05:02 2015
# Frame Rate: 120.000 fps
#------------------------------------------------------
:FULLY-SPECIFIED
:DEGREES
1353
root -3.652845 31.706444 -4.830807 6.514569 3.235592 -1.506468
Spine -3.470117 -5.057065 0.704483
Head 20.778583 0.038289 4.548286
LeftShoulder -18.249927 15.998186 12.544824
LeftArm 13.571987 -40.655780 -66.843840
LeftForeArm -14.139370 -0.000000 84.815201
LeftHand -12.717555 -0.000000 16.845694
LeftHandThumb1 -26.253704 0.000000 33.147579
RightShoulder -12.681397 -0.988703 -12.721067
RightArm 10.280258 -34.429484 81.880448
RightForeArm -19.478499 -0.000000 10.818858
RightHand -13.460457 -0.000000 13.387931
RightHandThumb1 -24.326973 -0.000000 -32.862282
LeftUpLeg -8.825320 -15.058573 -5.107233
LeftLeg 16.915390 -0.000000 -0.000000
LeftFoot -22.983606 29.266201 -8.485058
LeftToeBase 7.858432 -0.000000 -0.000000
RightUpLeg -18.795456 2.183145 -0.851298
RightLeg 23.704527 -0.000000 -0.000000
RightFoot -18.272535 -17.294640 17.139774
RightToeBase 0.907273 -0.000000 -0.000000
1354
root -3.630182 31.700663 -4.842773 6.526333 3.172431 -1.364816
Spine -3.396941 -5.116379 0.659865
Head 20.637589 0.177361 4.470500
LeftShoulder -18.286518 16.029842 12.525159
LeftArm 13.530639 -40.787785 -66.899031
LeftForeArm -14.219647 -0.000000 84.695433
LeftHand -12.739301 -0.000000 16.901760
LeftHandThumb1 -26.253704 0.000000 33.147579
RightShoulder -12.570629 -0.843064 -12.803223
RightArm 10.369133 -34.454165 81.840222
RightForeArm -19.417599 -0.000000 10.912136
RightHand -13.454388 -0.000000 13.342605
RightHandThumb1 -24.326973 -0.000000 -32.862282
LeftUpLeg -8.830784 -15.021774 -5.290474
LeftLeg 16.882447 -0.000000 -0.000000
LeftFoot -22.934432 29.275353 -8.472384
LeftToeBase 7.895839 -0.000000 -0.000000
RightUpLeg -18.959896 1.886927 -0.973593
RightLeg 23.840278 -0.000000 -0.000000
RightFoot -18.157191 -17.236861 17.042752
RightToeBase 1.161210 -0.000000 -0.000000
1355
root -3.613797 31.696344 -4.851953 6.532544 3.179831 -1.259885
Spine -3.338876 -5.216043 0.652322
Head 20.560951 0.309275 4.387860
LeftShoulder -18.289437 15.927346 12.549188
LeftArm 13.334734 -40.857672 -66.843492
LeftForeArm -14.286184 0.000000 84.583393
LeftHand -12.819254 -0.000000 16.873440
LeftHandThumb1 -26.253704 0.000000 33.147579
RightShoulder -12.487929 -0.704315 -12.859187
RightArm 10.419152 -34.442978 81.819092
RightForeArm -19.330300 -0.000000 11.064423
RightHand -13.526540 -0.000000 13.210144
RightHandThumb1 -24.326973 -0.000000 -32.862282
LeftUpLeg -8.824858 -15.002847 -5.420093
LeftLeg 16.835142 -0.000000 -0.000000
LeftFoot -22.883999 29.230607 -8.467160
LeftToeBase 7.874826 -0.000000 -0.000000
RightUpLeg -19.038486 1.591179 -1.064616
RightLeg 23.846136 -0.000000 -0.000000
RightFoot -18.066612 -17.224260 17.047881
RightToeBase 1.396519 -0.000000 -0.000000
1356
root -3.600576 31.692332 -4.858578 6.538793 3.232994 -1.202098
Spine -3.305718 -5.317256 0.687805
Head 20.541475 0.392539 4.324855
LeftShoulder -18.304495 15.959775 12.596252
LeftArm 13.334167 -40.899362 -67.002376
LeftForeArm -14.287726 -0.000000 84.464053
LeftHand -12.775280 -0.000000 16.849009
LeftHandThumb1 -26.253704 0.000000 33.147579
RightShoulder -12.439763 -0.636980 -12.894297
RightArm 10.503218 -34.404831 81.761010
RightForeArm -19.421159 -0.000000 11.263095
RightHand -13.518668 0.000000 13.160241
RightHandThumb1 -24.326973 -0.000000 -32.862282
LeftUpLeg -8.889545 -14.677951 -5.495490
LeftLeg 16.946653 -0.000000 -0.000000
LeftFoot -22.845753 28.875181 -8.342531
LeftToeBase 7.667213 -0.000000 -0.000000
RightUpLeg -19.075822 1.317061 -1.112985
RightLeg 23.818632 -0.000000 -0.000000
RightFoot -17.987635 -17.214922 17.028530
RightToeBase 1.522842 -0.000000 -0.000000
1357
root -3.589141 31.689524 -4.863306 6.543137 3.332276 -1.156627
Spine -3.286692 -5.407199 0.727612
Head 20.570816 0.389852 4.278239
LeftShoulder -18.281990 15.923787 12.663274
LeftArm 13.297715 -40.892969 -67.113911
LeftForeArm -14.315353 -0.000000 84.356715
LeftHand -12.767246 0.000000 16.904583
LeftHandThumb1 -26.253704 0.000000 33.147579
RightShoulder -12.439648 -0.592324 -12.903481
RightArm 10.551058 -34.349207 81.709903
RightForeArm -19.470910 0.000000 11.497412
RightHand -13.575359 0.000000 13.013876
RightHandThumb1 -24.326973 -0.000000 -32.862282
LeftUpLeg -8.912801 -14.609085 -5.543870
LeftLeg 16.968596 -0.000000 -0.000000
LeftFoot -22.816719 28.687662 -8.308352
LeftToeBase 7.715009 -0.000000 -0.000000
RightUpLeg -19.062270 1.043709 -1.160428
RightLeg 23.749646 -0.000000 -0.000000
RightFoot -17.938112 -17.094215 17.053711
RightToeBase 1.531451 -0.000000 -0.000000
1358
root -3.576706 31.688838 -4.866519 6.553203 3.453541 -1.120186
Spine -3.296377 -5.507348 0.780435
Head 20.682285 0.463782 4.330429
LeftShoulder -18.284608 15.977376 12.698630
LeftArm 13.430970 -40.898106 -67.358864
LeftForeArm -14.262746 -0.000000 84.251401
LeftHand -12.787171 -0.000000 16.965300
LeftHandThumb1 -26.253704 0.000000 33.147579
RightShoulder -12.448984 -0.596181 -12.891681
RightArm 10.634290 -34.284935 81.619735
RightForeArm -19.406097 -0.000000 11.738049
RightHand -13.577487 -0.000000 12.979809
RightHandThumb1 -24.326973 -0.000000 -32.862282
LeftUpLeg -8.929185 -14.582995 -5.584472
LeftLeg 16.968031 -0.000000 -0.000000
LeftFoot -22.752360 28.536306 -8.240799
LeftToeBase 7.662531 -0.000000 -0.000000
RightUpLeg -19.051096 0.760806 -1.204344
RightLeg 23.740059 -0.000000 -0.000000
RightFoot -17.933242 -16.885086 17.172288
RightToeBase 1.370185 -0.000000 -0.000000
1359
root -3.562157 31.689680 -4.871832 6.588782 3.590528 -1.078515
Spine -3.335279 -5.573243 0.833240
Head 20.820065 0.428679 4.333074
LeftShoulder -18.230109 15.926994 12.759872
LeftArm 13.415083 -40.843132 -67.490774
LeftForeArm -14.250349 0.000000 84.187624
LeftHand -12.754756 -0.000000 16.997897
LeftHandThumb1 -26.253704 0.000000 33.147579
RightShoulder -12.514381 -0.628848 -12.871001
RightArm 10.731962 -34.236636 81.513124
RightForeArm -19.456472 0.000000 12.009262
RightHand -13.595224 0.000000 12.818862
RightHandThumb1 -24.326973 -0.000000 -32.862282
LeftUpLeg -8.934472 -14.723465 -5.620123
LeftLeg 16.882063 -0.000000 -0.000000
LeftFoot -22.693318 28.504634 -8.236560
LeftToeBase 7.579981 -0.000000 -0.000000
RightUpLeg -19.059928 0.517860 -1.278895
RightLeg 23.755431 -0.000000 -0.000000
RightFoot -17.965541 -16.610407 17.348327
RightToeBase 1.199603 -0.000000 -0.000000
